<?xml version="1.0" encoding="iso-8859-1"?>
<!-- Uploaded to: SVG Repo, www.svgrepo.com, Generator: SVG Repo Mixer Tools -->
<svg fill="#000000" height="800px" width="800px" version="1.1" id="Layer_1" xmlns="http://www.w3.org/2000/svg" xmlns:xlink="http://www.w3.org/1999/xlink" 
	 viewBox="0 0 512 512" xml:space="preserve">
<g>
	<g>
		<path d="M256,0C114.837,0,0,114.837,0,256s114.837,256,256,256s256-114.837,256-256S397.163,0,256,0z M256,42.667
			c59.627,0,113.557,24.661,152.299,64.235c-19.84-4.459-43.904-6.933-73.173-6.315c-2.155-0.149-21.184-0.619-42.411,7.04
			c-23.68,8.576-49.749,8.576-73.429,0c-18.773-6.763-35.861-7.083-41.024-7.083c-28.48-1.92-52.011-0.363-71.616,3.392
			C145.152,66.091,197.867,42.667,256,42.667z M106.667,192h298.667c11.797,0,21.333,9.557,21.333,21.333
			s-9.536,21.333-21.333,21.333H106.667c-11.797,0-21.333-9.557-21.333-21.333S94.869,192,106.667,192z M256,469.333
			c-107.285,0-196.096-79.701-210.923-182.976C67.136,307.797,96.683,320,127.701,320h256.576c31.019,0,60.565-12.224,82.645-33.664
			C452.117,389.611,363.307,469.333,256,469.333z"/>
	</g>
</g>
<g>
	<g>
		<path d="M320,362.667H192c-11.797,0-21.333,9.557-21.333,21.333s9.536,21.333,21.333,21.333h128
			c11.797,0,21.333-9.557,21.333-21.333S331.797,362.667,320,362.667z"/>
	</g>
</g>
</svg>